# xmcd
# 
# Track frame offsets:
#     187
#     12172
#     26570
#     40552
#     51060
#     64247
#     77632
#     89400
#     101682
#     115572
#     128245
#     140612
# 
# Disc length: 2048
# 
# Revision: 1
# Processed by: cddbd v1.5.2PL0 Copyright (c) Steve Scherf et al.
# Submitted via: fre:ac v1.0.17
# 
DISCID=9407fe0c
DTITLE=Bing Crosby - Merry Christmas
DYEAR=1961
DGENRE=Christmas
TTITLE0=Silent Night
TTITLE1=Adeste Fideles
TTITLE2=White Christmas
TTITLE3=God Rest Ye Merry Gentlemen
TTITLE4=Faith Of Our Fathers
TTITLE5=I'll Be Home For Christmas
TTITLE6=Jingle Bells
TTITLE7=Santa Claus Is Comin' To Town
TTITLE8=Silver Bells
TTITLE9=It's Beginning To Look A Lot Like Christmas
TTITLE10=Christmas In Killarney
TTITLE11=Mele Kalikimaka
EXTD=
EXTT0=
EXTT1=
EXTT2=
EXTT3=
EXTT4=
EXTT5=
EXTT6=
EXTT7=
EXTT8=
EXTT9=
EXTT10=
EXTT11=
PLAYORDER=
